<svg id="svg" version="1.1" xmlns="http://www.w3.org/2000/svg" xmlns:xlink="http://www.w3.org/1999/xlink" width="400" height="400" viewBox="0, 0, 400,400"><g id="svgg"><path id="path0" d="M188.535 186.403 C 181.230 187.200,176.780 192.659,176.800 200.800 C 176.829 212.300,184.903 217.576,197.872 214.569 C 201.842 213.648,201.634 214.147,201.509 205.844 L 201.400 198.600 195.600 198.600 L 189.800 198.600 189.682 201.300 L 189.563 204.000 191.982 204.000 L 194.400 204.000 194.400 206.413 C 194.400 209.170,194.139 209.412,191.200 209.367 C 187.031 209.304,184.807 206.806,184.491 201.831 C 183.997 194.056,188.519 190.376,195.836 192.596 C 198.466 193.393,198.323 193.445,199.216 191.363 C 200.742 187.803,200.731 187.750,198.334 187.082 C 195.634 186.329,191.708 186.057,188.535 186.403 M100.188 186.886 C 100.079 187.171,100.037 193.614,100.095 201.202 L 100.200 215.000 103.600 215.000 L 107.000 215.000 107.112 210.104 L 107.225 205.208 108.336 204.633 C 109.861 203.845,109.949 203.943,112.812 209.600 C 115.828 215.560,115.372 215.186,119.633 215.194 C 123.892 215.201,123.892 215.201,122.240 212.235 C 121.494 210.896,120.389 208.900,119.784 207.800 C 119.179 206.700,117.900 204.432,116.942 202.761 C 115.984 201.089,115.200 199.527,115.200 199.289 C 115.200 198.913,120.790 190.706,122.858 188.046 C 124.034 186.534,123.808 186.400,120.076 186.400 C 115.816 186.400,116.151 186.158,112.056 192.200 C 106.800 199.954,107.250 199.926,107.111 192.500 L 107.000 186.600 103.694 186.484 C 101.267 186.398,100.334 186.506,100.188 186.886 M127.867 186.667 C 127.720 186.813,127.600 193.200,127.600 200.859 L 127.600 214.785 128.512 215.014 C 129.014 215.140,130.589 215.188,132.012 215.121 L 134.600 215.000 134.800 210.400 L 135.000 205.800 138.228 205.310 C 145.143 204.259,148.000 201.409,148.000 195.562 C 148.000 190.990,145.782 188.215,141.143 186.980 C 138.946 186.395,128.387 186.146,127.867 186.667 M153.481 186.652 C 153.326 186.807,153.200 193.200,153.200 200.859 L 153.200 214.785 154.108 215.013 C 154.608 215.138,156.273 215.187,157.808 215.120 L 160.600 215.000 160.600 200.800 L 160.600 186.600 157.181 186.486 C 155.301 186.423,153.636 186.498,153.481 186.652 M207.753 186.977 C 207.034 188.853,207.829 207.809,208.697 209.454 C 212.548 216.755,225.612 217.456,229.963 210.594 C 231.722 207.821,232.055 205.233,231.920 195.400 L 231.800 186.600 228.400 186.600 L 225.000 186.600 224.766 196.000 C 224.468 207.908,223.987 209.200,219.846 209.200 C 215.633 209.200,215.442 208.681,215.200 196.600 L 215.000 186.600 211.493 186.484 C 208.650 186.391,207.943 186.484,207.753 186.977 M244.621 186.766 C 244.497 186.967,243.206 190.792,241.752 195.266 C 240.298 199.740,238.319 205.815,237.354 208.768 C 235.073 215.749,234.924 215.201,239.100 215.194 C 242.973 215.187,243.371 215.051,243.760 213.600 C 243.907 213.050,244.232 211.920,244.482 211.088 L 244.936 209.576 249.768 209.688 L 254.600 209.800 255.426 212.400 L 256.251 215.000 259.789 215.116 C 264.060 215.257,264.188 215.156,263.225 212.387 C 262.807 211.184,260.799 205.070,258.763 198.800 C 256.727 192.530,254.890 187.175,254.681 186.900 C 254.230 186.305,244.982 186.181,244.621 186.766 M268.182 186.902 C 268.076 187.179,268.037 193.614,268.095 201.202 L 268.200 215.000 271.200 215.000 L 274.200 215.000 274.148 205.063 C 274.091 194.069,274.329 193.359,275.981 199.600 C 276.476 201.470,277.022 203.450,277.194 204.000 C 277.366 204.550,277.732 205.810,278.008 206.800 C 279.039 210.508,279.311 211.424,279.651 212.319 C 279.843 212.824,280.000 213.570,280.000 213.976 C 280.000 214.964,280.765 215.201,283.933 215.194 C 287.363 215.186,287.382 215.169,288.405 211.395 C 288.882 209.638,289.436 207.615,289.636 206.900 C 289.836 206.185,290.164 205.015,290.364 204.300 C 290.564 203.585,291.119 201.650,291.597 200.000 C 292.076 198.350,292.562 196.505,292.679 195.900 C 293.267 192.847,293.597 195.769,293.693 204.900 L 293.800 215.000 296.800 215.000 L 299.800 215.000 299.800 200.800 L 299.800 186.600 295.400 186.499 C 289.915 186.373,290.413 185.924,288.418 192.800 C 285.298 203.554,285.170 204.013,284.919 205.320 C 284.334 208.358,283.336 206.101,279.999 194.200 C 278.579 189.132,277.840 186.959,277.452 186.706 C 276.630 186.171,268.396 186.346,268.182 186.902 M251.287 196.309 C 251.912 198.669,252.532 201.275,252.664 202.100 L 252.905 203.600 250.153 203.594 C 246.451 203.586,246.334 203.480,247.065 200.797 C 247.394 199.589,247.939 197.430,248.275 196.000 C 249.557 190.552,249.769 190.574,251.287 196.309 M138.716 192.656 C 141.998 193.535,140.868 198.666,137.243 199.348 C 135.258 199.721,134.800 199.128,134.800 196.184 C 134.800 192.349,135.435 191.777,138.716 192.656 " stroke="none" fill="#8f59fc" fill-rule="evenodd"></path><path id="path1" d="M0.000 200.000 L 0.000 400.000 200.000 400.000 L 400.000 400.000 400.000 200.000 L 400.000 0.000 200.000 0.000 L 0.000 0.000 0.000 200.000 M196.294 185.656 C 201.079 186.800,201.899 187.585,200.782 189.960 C 200.233 191.128,199.788 192.242,199.432 193.343 C 199.231 193.965,198.946 194.041,197.696 193.807 C 191.105 192.573,186.000 193.708,186.000 196.406 C 186.000 196.817,185.820 197.264,185.600 197.400 C 184.984 197.781,185.121 203.313,185.785 204.903 C 186.820 207.380,188.467 208.400,191.431 208.400 L 194.000 208.400 194.000 206.848 L 194.000 205.296 191.568 205.120 C 188.630 204.908,188.414 204.634,188.406 201.114 C 188.398 197.578,188.459 197.550,195.894 197.689 L 201.800 197.800 201.800 206.184 L 201.800 214.567 200.400 214.911 C 193.324 216.649,187.162 216.557,183.163 214.653 C 180.145 213.216,176.400 208.184,176.400 205.565 C 176.400 205.119,176.194 203.938,175.943 202.939 C 175.475 201.079,175.991 196.299,176.833 194.705 C 177.035 194.323,177.204 193.783,177.210 193.505 C 177.247 191.635,181.905 187.388,185.000 186.405 C 185.880 186.125,186.960 185.752,187.400 185.575 C 188.609 185.090,194.138 185.140,196.294 185.656 M107.520 186.080 C 107.842 186.402,108.000 188.196,108.000 191.524 L 108.000 196.488 109.775 194.077 C 110.751 192.751,112.400 190.388,113.439 188.825 C 115.597 185.579,115.725 185.523,120.595 185.682 C 124.981 185.826,125.171 186.151,122.823 189.485 C 115.663 199.651,115.912 199.087,117.400 201.786 C 119.193 205.039,120.272 206.973,121.143 208.500 C 121.615 209.325,122.343 210.605,122.762 211.345 C 123.182 212.085,123.750 213.051,124.026 213.492 C 125.117 215.241,124.373 215.600,119.662 215.600 C 114.560 215.600,115.144 216.025,112.139 210.122 C 108.703 203.371,108.088 203.461,107.912 210.739 L 107.800 215.400 103.400 215.400 L 99.000 215.400 98.894 201.000 C 98.797 187.817,98.846 186.558,99.471 186.100 C 100.374 185.438,106.862 185.422,107.520 186.080 M143.872 186.966 C 153.366 191.587,148.969 206.000,138.066 206.000 L 135.625 206.000 135.513 210.700 L 135.400 215.400 131.200 215.400 L 127.000 215.400 126.895 201.047 C 126.814 189.983,126.905 186.555,127.293 186.088 C 128.212 184.981,141.206 185.669,143.872 186.966 M161.000 200.600 L 161.000 215.400 156.800 215.400 L 152.600 215.400 152.495 201.047 C 152.371 184.145,151.950 185.532,157.160 185.686 L 161.000 185.800 161.000 200.600 M215.627 195.400 C 215.752 200.680,216.001 205.450,216.180 206.000 C 217.003 208.523,220.606 209.285,222.545 207.345 L 223.600 206.291 223.600 196.360 C 223.600 184.755,223.213 185.600,228.525 185.600 C 233.211 185.600,232.937 184.848,232.716 197.102 C 232.506 208.770,232.273 209.771,229.044 212.905 C 224.337 217.473,214.558 217.329,209.945 212.623 C 208.831 211.486,208.458 210.829,207.256 207.881 C 206.591 206.251,206.625 186.735,207.293 186.067 C 207.633 185.727,208.974 185.609,211.593 185.687 L 215.400 185.800 215.627 195.400 M256.323 188.800 C 256.858 190.450,257.454 192.113,257.648 192.495 C 257.842 192.877,258.000 193.541,258.000 193.971 C 258.000 194.401,258.180 194.864,258.400 195.000 C 258.620 195.136,258.800 195.676,258.800 196.200 C 258.800 196.724,258.980 197.264,259.200 197.400 C 259.420 197.536,259.600 197.999,259.600 198.429 C 259.600 198.859,259.763 199.523,259.962 199.905 C 260.838 201.588,264.864 214.773,264.622 215.165 C 264.238 215.786,255.906 215.746,255.280 215.120 C 255.016 214.856,254.800 214.284,254.800 213.848 C 254.800 213.413,254.584 212.459,254.320 211.728 L 253.839 210.400 249.707 210.400 C 246.745 210.400,245.534 210.542,245.431 210.900 C 245.352 211.175,245.021 212.300,244.696 213.400 L 244.104 215.400 239.552 215.400 L 235.000 215.400 234.869 214.251 C 234.797 213.619,234.932 212.908,235.169 212.671 C 235.406 212.434,235.600 211.914,235.600 211.515 C 235.600 211.116,235.761 210.477,235.959 210.095 C 236.156 209.713,237.075 206.970,238.000 204.000 C 238.925 201.030,239.844 198.287,240.041 197.905 C 240.239 197.523,240.400 196.859,240.400 196.429 C 240.400 195.999,240.580 195.536,240.800 195.400 C 241.020 195.264,241.200 194.801,241.200 194.371 C 241.200 193.941,241.358 193.277,241.551 192.895 C 241.744 192.513,242.119 191.480,242.385 190.600 C 242.650 189.720,243.149 188.230,243.492 187.289 L 244.117 185.579 249.734 185.689 L 255.350 185.800 256.323 188.800 M278.056 186.100 C 278.390 186.375,278.896 187.410,279.178 188.400 C 279.461 189.390,279.831 190.650,280.000 191.200 C 280.169 191.750,280.526 193.010,280.793 194.000 C 281.060 194.990,281.440 196.113,281.639 196.495 C 281.838 196.877,282.000 197.554,282.000 198.000 C 282.000 198.446,282.158 199.123,282.351 199.505 C 282.887 200.567,283.600 202.976,283.600 203.728 C 283.600 205.047,284.234 204.368,284.747 202.500 C 285.035 201.455,285.413 200.150,285.588 199.600 C 285.764 199.050,286.129 197.790,286.400 196.800 C 286.671 195.810,287.031 194.550,287.200 194.000 C 287.369 193.450,287.732 192.190,288.008 191.200 C 289.634 185.352,289.315 185.600,295.200 185.600 C 301.860 185.600,301.231 183.960,301.106 201.000 L 301.000 215.400 297.260 215.516 C 292.152 215.673,292.405 216.071,292.373 207.851 C 292.346 201.073,292.206 200.661,291.201 204.400 C 290.935 205.390,290.555 206.613,290.358 207.119 C 290.161 207.624,290.000 208.469,290.000 208.995 C 290.000 209.522,289.820 210.064,289.600 210.200 C 289.380 210.336,289.197 210.842,289.194 211.324 C 289.191 211.806,288.938 212.920,288.632 213.800 L 288.076 215.400 284.038 215.514 L 280.000 215.628 279.439 214.314 C 279.130 213.591,278.659 212.190,278.392 211.200 C 278.125 210.210,277.769 208.950,277.600 208.400 C 277.431 207.850,277.071 206.590,276.800 205.600 C 276.529 204.610,276.163 203.350,275.986 202.800 C 275.810 202.250,275.515 201.260,275.333 200.600 C 275.113 199.809,274.932 202.127,274.800 207.400 L 274.600 215.400 270.800 215.400 L 267.000 215.400 266.894 201.000 C 266.769 183.960,266.140 185.600,272.800 185.600 C 275.926 185.600,277.646 185.764,278.056 186.100 M135.600 196.000 C 135.600 199.174,136.366 199.686,138.546 197.971 C 140.727 196.256,139.813 193.200,137.120 193.200 L 135.600 193.200 135.600 196.000 M249.439 195.000 C 248.982 196.972,248.370 199.321,247.973 200.628 C 247.349 202.684,247.444 202.800,249.746 202.800 L 251.893 202.800 251.528 201.100 C 251.187 199.512,251.018 198.821,250.080 195.200 L 249.717 193.800 249.439 195.000 " stroke="none" fill="#fcfbfc" fill-rule="evenodd"></path><path id="path2" d="M103.700 186.293 L 107.200 186.430 107.200 191.791 C 107.200 197.108,107.444 198.152,108.411 196.986 C 108.829 196.484,108.804 196.423,108.268 196.629 C 107.699 196.848,107.611 196.257,107.512 191.538 L 107.400 186.200 103.800 186.178 L 100.200 186.155 103.700 186.293 M117.900 186.295 C 119.055 186.376,120.945 186.376,122.100 186.295 C 123.255 186.214,122.310 186.148,120.000 186.148 C 117.690 186.148,116.745 186.214,117.900 186.295 M130.518 186.298 C 132.233 186.373,134.933 186.372,136.518 186.297 C 138.103 186.221,136.700 186.159,133.400 186.160 C 130.100 186.161,128.803 186.222,130.518 186.298 M155.113 186.295 C 156.276 186.376,158.076 186.376,159.113 186.293 C 160.151 186.211,159.200 186.145,157.000 186.146 C 154.800 186.147,153.951 186.214,155.113 186.295 M209.513 186.295 C 210.676 186.376,212.476 186.376,213.513 186.293 C 214.551 186.211,213.600 186.145,211.400 186.146 C 209.200 186.147,208.351 186.214,209.513 186.295 M228.493 186.292 L 231.986 186.430 232.104 195.715 L 232.222 205.000 232.211 195.600 L 232.200 186.200 228.600 186.178 L 225.000 186.155 228.493 186.292 M270.300 186.296 C 271.675 186.374,273.925 186.374,275.300 186.296 C 276.675 186.218,275.550 186.154,272.800 186.154 C 270.050 186.154,268.925 186.218,270.300 186.296 M292.700 186.296 C 294.075 186.374,296.325 186.374,297.700 186.296 C 299.075 186.218,297.950 186.154,295.200 186.154 C 292.450 186.154,291.325 186.218,292.700 186.296 M99.381 200.800 C 99.381 208.830,99.434 212.115,99.499 208.100 C 99.565 204.085,99.565 197.515,99.499 193.500 C 99.434 189.485,99.381 192.770,99.381 200.800 M267.381 200.800 C 267.381 208.830,267.434 212.115,267.499 208.100 C 267.565 204.085,267.565 197.515,267.499 193.500 C 267.434 189.485,267.381 192.770,267.381 200.800 M300.581 200.800 C 300.581 208.830,300.634 212.115,300.699 208.100 C 300.765 204.085,300.765 197.515,300.699 193.500 C 300.634 189.485,300.581 192.770,300.581 200.800 M215.372 196.000 C 215.372 201.170,215.429 203.285,215.499 200.700 C 215.568 198.115,215.568 193.885,215.499 191.300 C 215.429 188.715,215.372 190.830,215.372 196.000 M112.400 190.800 C 111.930 191.460,111.636 192.000,111.746 192.000 C 111.856 192.000,112.330 191.460,112.800 190.800 C 113.270 190.140,113.564 189.600,113.454 189.600 C 113.344 189.600,112.870 190.140,112.400 190.800 M192.500 192.676 C 192.885 192.776,193.515 192.776,193.900 192.676 C 194.285 192.575,193.970 192.493,193.200 192.493 C 192.430 192.493,192.115 192.575,192.500 192.676 M249.220 193.563 C 248.989 193.994,248.814 194.584,248.832 194.874 C 248.849 195.163,249.051 194.885,249.280 194.255 C 249.593 193.396,249.783 193.246,250.042 193.655 C 250.272 194.018,250.390 194.041,250.394 193.724 C 250.405 192.864,249.649 192.761,249.220 193.563 M292.698 197.300 C 292.591 197.795,292.362 198.537,292.190 198.949 C 291.885 199.677,291.900 199.678,292.739 198.960 C 293.212 198.554,293.600 197.812,293.600 197.311 C 293.600 196.136,292.952 196.128,292.698 197.300 M192.500 198.297 C 194.205 198.372,196.995 198.372,198.700 198.297 C 200.405 198.222,199.010 198.161,195.600 198.161 C 192.190 198.161,190.795 198.222,192.500 198.297 M188.860 201.076 C 188.827 202.658,188.935 204.036,189.100 204.139 C 189.265 204.241,189.349 203.397,189.286 202.262 C 189.082 198.584,188.921 198.137,188.860 201.076 M201.766 206.000 C 201.766 210.070,201.825 211.735,201.898 209.700 C 201.971 207.665,201.971 204.335,201.898 202.300 C 201.825 200.265,201.766 201.930,201.766 206.000 M176.101 200.600 C 176.105 201.480,176.187 201.793,176.283 201.295 C 176.379 200.798,176.375 200.078,176.275 199.695 C 176.175 199.313,176.096 199.720,176.101 200.600 M292.878 207.476 C 292.835 211.478,292.935 214.837,293.100 214.939 C 293.265 215.042,293.353 212.937,293.295 210.263 C 293.099 201.144,292.957 200.191,292.878 207.476 M274.565 208.000 C 274.565 211.850,274.625 213.425,274.698 211.500 C 274.771 209.575,274.771 206.425,274.698 204.500 C 274.625 202.575,274.565 204.150,274.565 208.000 M283.218 204.200 C 283.215 204.420,283.369 204.848,283.561 205.151 C 283.946 205.759,284.804 205.429,284.794 204.676 C 284.790 204.361,284.670 204.385,284.441 204.748 C 284.160 205.190,284.010 205.152,283.659 204.548 C 283.420 204.137,283.222 203.980,283.218 204.200 M191.937 204.684 L 194.074 204.844 193.937 206.803 C 193.862 207.880,193.947 208.615,194.126 208.435 C 194.305 208.256,194.395 207.319,194.326 206.354 L 194.200 204.600 192.000 204.562 L 189.800 204.524 191.937 204.684 M107.373 206.126 C 107.262 206.415,107.224 208.620,107.288 211.026 L 107.405 215.400 107.602 210.499 C 107.798 205.658,107.768 205.096,107.373 206.126 M246.800 209.859 C 250.112 210.153,254.312 210.176,254.140 209.900 C 254.037 209.735,252.028 209.630,249.676 209.667 C 247.324 209.704,246.030 209.790,246.800 209.859 M198.200 214.800 C 197.696 215.017,197.622 215.144,198.000 215.144 C 198.330 215.144,198.960 214.989,199.400 214.800 C 199.904 214.583,199.978 214.456,199.600 214.456 C 199.270 214.456,198.640 214.611,198.200 214.800 M189.500 215.889 C 190.215 215.978,191.385 215.978,192.100 215.889 C 192.815 215.801,192.230 215.728,190.800 215.728 C 189.370 215.728,188.785 215.801,189.500 215.889 M218.700 215.882 C 219.195 215.978,220.005 215.978,220.500 215.882 C 220.995 215.787,220.590 215.709,219.600 215.709 C 218.610 215.709,218.205 215.787,218.700 215.882 " stroke="none" fill="#d2bcfc" fill-rule="evenodd"></path><path id="path3" d="M187.738 185.506 C 187.484 185.668,189.322 185.800,191.823 185.800 C 194.324 185.800,196.062 185.678,195.685 185.528 C 194.753 185.158,188.313 185.140,187.738 185.506 M99.471 186.100 C 98.846 186.558,98.797 187.817,98.894 201.000 L 99.000 215.400 103.400 215.400 L 107.800 215.400 107.914 210.824 C 108.059 204.985,108.834 203.731,110.400 206.800 C 110.849 207.680,111.316 208.400,111.438 208.400 C 111.822 208.400,109.823 205.066,109.346 204.912 C 108.060 204.494,107.600 205.998,107.600 210.629 L 107.600 215.200 103.400 215.200 L 99.200 215.200 99.200 200.808 L 99.200 186.415 100.101 186.189 C 100.597 186.065,102.442 186.016,104.201 186.081 L 107.400 186.200 107.512 191.500 C 107.640 197.581,107.668 197.615,109.935 194.400 C 110.866 193.080,111.541 192.000,111.436 192.000 C 111.330 192.000,110.514 193.019,109.622 194.265 L 108.000 196.530 108.000 191.545 C 108.000 188.201,107.842 186.402,107.520 186.080 C 106.862 185.422,100.374 185.438,99.471 186.100 M115.550 186.087 C 114.839 186.658,112.247 190.400,112.562 190.400 C 112.672 190.400,113.343 189.545,114.054 188.500 C 115.783 185.960,115.653 186.013,120.100 186.006 C 124.775 185.999,124.831 186.100,122.195 189.871 C 121.202 191.292,120.572 192.341,120.796 192.202 C 121.648 191.676,124.446 187.136,124.321 186.483 C 124.150 185.589,116.594 185.248,115.550 186.087 M127.244 186.147 C 126.919 186.538,126.820 190.787,126.895 201.047 L 127.000 215.400 131.200 215.400 L 135.400 215.400 135.513 210.700 L 135.625 206.000 138.066 206.000 C 141.947 206.000,147.600 203.131,147.600 201.162 C 147.600 200.962,146.966 201.500,146.191 202.358 C 144.232 204.526,142.358 205.321,138.600 205.580 L 135.400 205.800 135.287 210.500 L 135.175 215.200 131.182 215.200 L 127.190 215.200 127.295 200.700 L 127.400 186.200 132.800 185.982 L 138.200 185.764 132.949 185.682 C 128.916 185.619,127.593 185.727,127.244 186.147 M152.855 186.133 C 152.516 186.542,152.418 190.583,152.495 201.047 L 152.600 215.400 156.800 215.400 L 161.000 215.400 161.000 200.600 L 161.000 185.800 157.160 185.686 C 154.246 185.600,153.209 185.708,152.855 186.133 M207.293 186.067 C 206.743 186.617,206.568 206.615,207.106 207.463 C 207.268 207.717,207.400 203.037,207.400 197.063 L 207.400 186.200 211.167 186.084 C 213.897 186.000,215.033 186.110,215.297 186.484 C 215.576 186.880,215.623 186.860,215.498 186.400 C 215.281 185.601,208.052 185.308,207.293 186.067 M224.269 186.100 C 223.651 186.552,223.596 187.536,223.700 196.400 L 223.815 206.200 223.907 196.308 L 224.000 186.415 224.901 186.189 C 225.397 186.065,227.242 186.016,229.001 186.081 L 232.200 186.200 232.412 195.200 L 232.623 204.200 232.712 195.380 C 232.776 188.951,232.670 186.430,232.320 186.080 C 231.662 185.422,225.174 185.438,224.269 186.100 M244.000 185.730 C 244.000 185.814,243.550 187.123,243.000 188.640 C 242.450 190.156,242.007 191.667,242.016 191.998 C 242.024 192.329,242.527 191.160,243.133 189.400 L 244.236 186.200 249.652 186.089 L 255.068 185.978 256.113 189.089 C 256.688 190.800,257.167 191.930,257.178 191.600 C 257.189 191.270,256.777 189.830,256.262 188.400 L 255.326 185.800 249.663 185.689 C 246.548 185.628,244.000 185.647,244.000 185.730 M267.471 186.100 C 266.846 186.558,266.797 187.817,266.894 201.000 L 267.000 215.400 270.564 215.516 C 272.523 215.581,274.270 215.491,274.445 215.316 C 274.620 215.142,273.062 215.057,270.982 215.127 L 267.200 215.255 267.200 200.870 C 267.200 188.122,267.272 186.458,267.833 186.243 C 268.731 185.898,277.310 185.952,277.840 186.306 C 278.082 186.468,278.383 186.870,278.508 187.200 C 278.693 187.685,278.743 187.668,278.768 187.114 C 278.837 185.633,269.279 184.775,267.471 186.100 M289.900 186.032 C 289.515 186.256,289.214 186.746,289.232 187.120 C 289.257 187.673,289.306 187.688,289.492 187.200 C 289.617 186.870,289.918 186.468,290.160 186.306 C 290.690 185.952,299.269 185.898,300.167 186.243 C 300.728 186.458,300.800 188.121,300.800 200.857 L 300.800 215.229 296.900 215.114 L 293.000 215.000 293.000 206.900 C 293.000 199.407,292.805 197.563,292.227 199.600 C 291.586 201.859,291.541 202.210,291.968 201.600 C 292.268 201.171,292.389 202.950,292.394 207.851 C 292.401 216.073,292.148 215.673,297.260 215.516 L 301.000 215.400 301.106 201.000 C 301.203 187.817,301.154 186.558,300.529 186.100 C 299.689 185.484,290.936 185.428,289.900 186.032 M139.233 186.145 C 139.628 186.489,142.781 186.693,142.576 186.362 C 142.453 186.163,141.613 186.000,140.710 186.000 C 139.806 186.000,139.142 186.065,139.233 186.145 M160.800 200.600 L 160.800 215.200 156.800 215.200 L 152.800 215.200 152.800 200.867 C 152.800 192.983,152.920 186.413,153.067 186.267 C 153.213 186.120,155.013 186.000,157.067 186.000 L 160.800 186.000 160.800 200.600 M183.854 186.804 C 180.614 188.421,176.824 192.441,177.340 193.714 C 177.483 194.068,177.545 194.057,177.568 193.672 C 177.690 191.640,181.820 187.851,185.202 186.667 C 186.191 186.321,186.640 186.037,186.200 186.035 C 185.760 186.033,184.704 186.379,183.854 186.804 M196.833 186.143 C 196.925 186.221,197.630 186.401,198.400 186.542 C 199.385 186.723,199.622 186.682,199.200 186.406 C 198.658 186.050,196.437 185.803,196.833 186.143 M144.666 187.854 C 146.228 188.867,147.510 190.509,148.060 192.200 C 148.290 192.908,148.325 192.916,148.360 192.272 C 148.419 191.206,146.147 188.096,144.801 187.401 C 142.962 186.450,142.887 186.701,144.666 187.854 M200.352 187.125 C 200.701 187.369,200.836 187.973,200.719 188.768 C 200.609 189.523,200.680 189.880,200.899 189.661 C 201.449 189.111,201.083 187.084,200.400 186.900 C 199.906 186.768,199.898 186.807,200.352 187.125 M279.044 189.000 C 279.373 190.471,279.602 190.790,279.594 189.767 C 279.591 189.345,279.405 188.730,279.182 188.400 C 278.885 187.962,278.848 188.124,279.044 189.000 M288.649 188.615 C 288.512 188.973,288.415 189.566,288.434 189.933 C 288.453 190.300,288.627 190.069,288.821 189.420 C 289.198 188.158,289.065 187.533,288.649 188.615 M279.844 191.800 C 280.173 193.271,280.402 193.590,280.394 192.567 C 280.391 192.145,280.205 191.530,279.982 191.200 C 279.685 190.762,279.648 190.924,279.844 191.800 M287.849 191.415 C 287.712 191.773,287.615 192.366,287.634 192.733 C 287.653 193.100,287.827 192.869,288.021 192.220 C 288.398 190.958,288.265 190.333,287.849 191.415 M190.052 192.830 C 188.837 192.994,187.993 193.436,187.078 194.388 L 185.800 195.716 187.400 194.474 C 188.861 193.340,189.295 193.222,192.400 193.116 C 195.259 193.018,195.478 192.968,193.774 192.800 C 192.660 192.690,190.985 192.703,190.052 192.830 M199.200 192.986 C 199.200 193.600,198.954 193.672,197.521 193.480 C 196.428 193.334,196.044 193.383,196.421 193.621 C 197.825 194.510,200.476 193.542,199.449 192.516 C 199.312 192.379,199.200 192.590,199.200 192.986 M135.367 193.342 C 134.695 195.093,135.400 199.000,136.400 199.066 C 137.281 199.123,137.293 199.108,136.500 198.938 C 135.673 198.760,135.600 198.522,135.600 195.996 L 135.600 193.248 137.100 193.091 L 138.600 192.934 137.087 192.867 C 136.133 192.825,135.498 193.000,135.367 193.342 M139.100 193.599 C 140.022 194.634,139.716 197.051,138.546 197.971 C 137.966 198.427,137.665 198.800,137.876 198.800 C 139.593 198.800,140.723 194.645,139.300 193.568 C 138.704 193.118,138.675 193.122,139.100 193.599 M148.523 195.600 C 148.523 197.597,148.590 197.898,148.811 196.900 C 148.969 196.185,148.969 195.015,148.811 194.300 C 148.590 193.302,148.523 193.603,148.523 195.600 M249.460 193.789 C 249.081 194.776,249.153 195.091,249.600 194.400 C 249.908 193.924,249.990 194.007,250.000 194.800 C 250.007 195.350,250.189 196.070,250.406 196.400 C 250.683 196.823,250.724 196.586,250.544 195.600 C 250.178 193.585,249.788 192.934,249.460 193.789 M280.644 194.600 C 280.973 196.071,281.202 196.390,281.194 195.367 C 281.191 194.945,281.005 194.330,280.782 194.000 C 280.485 193.562,280.448 193.724,280.644 194.600 M287.049 194.215 C 286.912 194.573,286.815 195.166,286.834 195.533 C 286.853 195.900,287.027 195.669,287.221 195.020 C 287.598 193.758,287.465 193.133,287.049 194.215 M117.615 196.378 C 115.673 199.238,115.667 199.337,117.263 202.275 C 118.815 205.134,119.600 206.307,119.600 205.769 C 119.600 205.544,119.444 205.189,119.254 204.980 C 118.580 204.241,116.400 199.942,116.400 199.353 C 116.400 199.025,117.127 197.686,118.015 196.378 C 118.903 195.070,119.540 194.000,119.430 194.000 C 119.320 194.000,118.503 195.070,117.615 196.378 M176.554 194.977 C 176.432 195.294,176.403 195.879,176.489 196.277 C 176.587 196.728,176.724 196.512,176.854 195.700 C 177.071 194.338,176.930 193.996,176.554 194.977 M248.854 195.867 C 248.825 196.344,248.696 197.064,248.570 197.467 C 248.352 198.161,248.364 198.162,248.796 197.488 C 249.047 197.097,249.175 196.377,249.081 195.888 C 248.909 195.001,248.909 195.001,248.854 195.867 M281.552 197.687 C 281.737 198.798,281.793 198.855,281.919 198.054 C 282.001 197.533,281.903 196.943,281.701 196.741 C 281.479 196.519,281.421 196.893,281.552 197.687 M286.249 197.015 C 286.112 197.373,286.015 197.966,286.034 198.333 C 286.053 198.700,286.227 198.469,286.421 197.820 C 286.798 196.558,286.665 195.933,286.249 197.015 M250.806 198.033 C 250.809 198.565,250.989 199.270,251.206 199.600 C 251.482 200.022,251.523 199.785,251.342 198.800 C 251.025 197.075,250.798 196.749,250.806 198.033 M175.781 199.385 C 175.634 200.367,175.678 201.852,175.880 202.685 C 176.191 203.974,176.242 203.707,176.225 200.900 C 176.202 197.107,176.150 196.929,175.781 199.385 M189.100 198.026 C 188.543 198.355,188.401 198.987,188.406 201.120 C 188.414 204.686,188.613 204.924,191.668 205.041 L 194.200 205.137 192.000 204.865 C 190.790 204.714,189.575 204.448,189.300 204.272 C 188.510 203.767,188.625 198.553,189.433 198.243 C 190.538 197.819,201.517 197.968,201.737 198.410 C 201.849 198.636,201.894 198.591,201.837 198.310 C 201.705 197.656,190.163 197.399,189.100 198.026 M239.867 197.867 C 239.720 198.013,239.611 198.508,239.625 198.967 C 239.649 199.733,239.682 199.723,240.034 198.842 C 240.426 197.863,240.344 197.389,239.867 197.867 M274.454 199.420 C 274.484 200.509,274.591 200.966,274.691 200.435 C 274.833 199.678,274.954 199.592,275.248 200.035 C 275.502 200.416,275.538 200.208,275.361 199.400 C 274.903 197.320,274.397 197.331,274.454 199.420 M184.931 201.000 C 184.933 202.540,185.005 203.121,185.092 202.291 C 185.179 201.461,185.177 200.201,185.089 199.491 C 185.000 198.781,184.929 199.460,184.931 201.000 M248.054 199.067 C 248.025 199.544,247.896 200.264,247.770 200.667 C 247.552 201.361,247.564 201.362,247.996 200.688 C 248.247 200.297,248.375 199.577,248.281 199.088 C 248.109 198.201,248.109 198.201,248.054 199.067 M285.449 199.815 C 285.312 200.173,285.215 200.766,285.234 201.133 C 285.253 201.500,285.427 201.269,285.621 200.620 C 285.998 199.358,285.865 198.733,285.449 199.815 M251.735 201.500 L 251.861 202.800 249.760 202.800 C 248.230 202.800,247.607 202.635,247.470 202.192 C 247.338 201.766,247.300 201.796,247.344 202.292 C 247.395 202.857,247.844 203.025,249.561 203.123 C 252.108 203.268,252.509 202.983,251.994 201.390 L 251.608 200.200 251.735 201.500 M275.606 201.433 C 275.609 201.855,275.795 202.470,276.018 202.800 C 276.315 203.238,276.352 203.076,276.156 202.200 C 275.827 200.729,275.598 200.410,275.606 201.433 M283.044 202.600 C 283.373 204.071,283.602 204.390,283.594 203.367 C 283.591 202.945,283.405 202.330,283.182 202.000 C 282.885 201.562,282.848 201.724,283.044 202.600 M284.558 203.053 C 284.403 203.684,284.105 204.313,283.896 204.450 C 283.661 204.604,283.676 204.800,283.936 204.960 C 284.340 205.210,285.371 202.438,285.009 202.075 C 284.915 201.982,284.712 202.422,284.558 203.053 M237.456 205.576 C 236.875 207.334,236.410 209.003,236.422 209.286 C 236.434 209.569,236.977 208.198,237.629 206.240 C 238.280 204.282,238.746 202.613,238.663 202.530 C 238.580 202.447,238.037 203.818,237.456 205.576 M291.246 202.867 C 291.221 203.234,291.096 203.864,290.970 204.267 C 290.752 204.962,290.763 204.963,291.197 204.287 C 291.448 203.896,291.573 203.266,291.473 202.887 C 291.311 202.268,291.288 202.266,291.246 202.867 M276.406 204.233 C 276.409 204.655,276.595 205.270,276.818 205.600 C 277.115 206.038,277.152 205.876,276.956 205.000 C 276.627 203.529,276.398 203.210,276.406 204.233 M185.233 204.140 C 185.011 206.445,188.213 208.822,191.425 208.737 L 193.800 208.674 191.131 208.437 C 188.200 208.177,186.801 207.275,185.796 205.000 C 185.504 204.340,185.251 203.953,185.233 204.140 M215.656 204.800 C 215.656 205.130,215.811 205.760,216.000 206.200 C 216.217 206.704,216.344 206.778,216.344 206.400 C 216.344 206.070,216.189 205.440,216.000 205.000 C 215.783 204.496,215.656 204.422,215.656 204.800 M176.446 205.451 C 176.400 206.308,177.446 209.200,177.802 209.200 C 177.907 209.200,177.736 208.525,177.421 207.700 C 177.106 206.875,176.768 205.840,176.670 205.400 C 176.503 204.645,176.490 204.648,176.446 205.451 M232.064 206.267 C 232.029 206.964,231.896 207.864,231.770 208.267 C 231.553 208.959,231.565 208.960,231.994 208.291 C 232.245 207.902,232.377 207.002,232.289 206.291 L 232.128 205.000 232.064 206.267 M290.446 205.667 C 290.421 206.034,290.296 206.664,290.170 207.067 C 289.952 207.762,289.963 207.763,290.397 207.087 C 290.648 206.696,290.773 206.066,290.673 205.687 C 290.511 205.068,290.488 205.066,290.446 205.667 M119.960 207.000 C 120.634 208.305,121.188 209.028,121.185 208.600 C 121.183 208.380,120.814 207.750,120.364 207.200 C 119.821 206.536,119.685 206.469,119.960 207.000 M222.458 207.407 C 221.331 208.595,218.964 208.753,217.286 207.753 L 216.200 207.105 217.200 207.944 C 218.929 209.393,222.651 208.808,223.354 206.976 C 223.651 206.203,223.558 206.248,222.458 207.407 M277.206 207.033 C 277.209 207.455,277.395 208.070,277.618 208.400 C 277.915 208.838,277.952 208.676,277.756 207.800 C 277.427 206.329,277.198 206.010,277.206 207.033 M289.654 208.467 C 289.625 208.834,289.484 209.464,289.341 209.867 C 289.141 210.433,289.195 210.496,289.575 210.146 C 289.846 209.897,289.987 209.267,289.888 208.746 C 289.790 208.226,289.684 208.100,289.654 208.467 M122.538 211.665 C 124.575 215.377,124.692 215.244,119.512 215.113 L 115.024 215.000 113.848 212.698 C 113.201 211.432,112.610 210.456,112.536 210.531 C 112.362 210.705,114.116 214.176,114.786 214.983 C 115.561 215.917,123.916 215.885,124.276 214.947 C 124.413 214.588,124.301 213.933,124.026 213.492 C 123.750 213.051,123.165 212.040,122.725 211.245 C 122.285 210.450,121.733 209.620,121.500 209.400 C 121.266 209.180,121.733 210.199,122.538 211.665 M262.800 209.348 C 262.800 209.429,263.160 210.623,263.600 212.000 C 264.040 213.377,264.400 214.661,264.400 214.852 C 264.400 215.043,262.425 215.200,260.011 215.200 L 255.623 215.200 255.248 213.900 C 254.908 212.724,254.869 212.698,254.836 213.620 C 254.775 215.353,255.427 215.600,260.056 215.600 C 265.130 215.600,265.118 215.611,263.997 211.990 C 263.280 209.673,262.800 208.614,262.800 209.348 M278.006 209.833 C 278.009 210.255,278.195 210.870,278.418 211.200 C 278.715 211.638,278.752 211.476,278.556 210.600 C 278.227 209.129,277.998 208.810,278.006 209.833 M178.000 210.007 C 178.000 211.295,184.156 215.636,185.896 215.575 C 186.283 215.562,185.700 215.252,184.600 214.888 C 183.239 214.437,181.865 213.512,180.300 211.993 C 179.035 210.765,178.000 209.871,178.000 210.007 M244.628 212.162 C 244.283 213.350,244.000 214.531,244.000 214.786 C 244.000 215.116,242.691 215.213,239.418 215.124 C 236.899 215.056,234.979 215.141,235.153 215.314 C 235.326 215.487,237.412 215.577,239.787 215.514 L 244.105 215.400 244.697 213.400 C 245.022 212.300,245.352 211.175,245.431 210.900 C 245.763 209.743,253.876 210.251,254.176 211.447 C 254.321 212.023,254.525 212.408,254.631 212.303 C 254.736 212.197,254.642 211.636,254.421 211.055 C 254.021 210.004,254.005 210.000,249.638 210.000 L 245.257 210.000 244.628 212.162 M208.413 210.633 C 208.428 211.078,209.931 212.783,211.013 213.581 C 211.446 213.901,211.080 213.363,210.200 212.387 C 209.320 211.411,208.555 210.535,208.500 210.439 C 208.445 210.344,208.406 210.432,208.413 210.633 M229.600 212.000 C 229.130 212.660,228.836 213.200,228.946 213.200 C 229.056 213.200,229.530 212.660,230.000 212.000 C 230.470 211.340,230.764 210.800,230.654 210.800 C 230.544 210.800,230.070 211.340,229.600 212.000 M288.846 211.306 C 288.821 211.695,288.575 212.740,288.300 213.629 L 287.800 215.245 283.718 215.123 C 281.473 215.055,279.779 215.142,279.954 215.315 C 280.128 215.489,282.028 215.579,284.177 215.515 L 288.083 215.400 288.665 213.673 C 288.986 212.723,289.168 211.643,289.071 211.273 C 288.911 210.670,288.888 210.674,288.846 211.306 M278.806 212.633 C 278.809 213.055,278.995 213.670,279.218 214.000 C 279.515 214.438,279.552 214.276,279.356 213.400 C 279.027 211.929,278.798 211.610,278.806 212.633 M201.600 213.546 C 201.600 213.810,201.195 214.189,200.700 214.388 L 199.800 214.749 200.713 214.775 C 201.596 214.799,202.357 213.823,201.849 213.316 C 201.712 213.179,201.600 213.282,201.600 213.546 M227.796 213.606 C 227.081 214.763,220.731 216.215,217.928 215.862 L 216.200 215.645 217.940 216.088 C 220.620 216.770,226.667 215.406,227.981 213.823 C 228.265 213.480,228.397 213.200,228.273 213.200 C 228.149 213.200,227.934 213.383,227.796 213.606 M197.400 215.200 L 195.800 215.486 197.200 215.537 C 197.970 215.565,198.870 215.413,199.200 215.200 C 199.855 214.777,199.762 214.777,197.400 215.200 M213.941 215.301 C 214.143 215.503,214.733 215.601,215.254 215.519 C 216.055 215.393,215.998 215.337,214.887 215.152 C 214.093 215.021,213.719 215.079,213.941 215.301 M187.920 216.072 C 188.796 216.422,193.103 216.403,194.395 216.043 C 194.942 215.891,193.556 215.774,191.315 215.783 C 189.074 215.792,187.546 215.922,187.920 216.072 " stroke="none" fill="#ece4fc" fill-rule="evenodd"></path><path id="path4" d="M189.000 185.974 C 188.278 186.141,189.393 186.256,191.800 186.261 C 194.794 186.267,195.397 186.191,194.200 185.957 C 192.298 185.587,190.640 185.593,189.000 185.974 M249.576 186.299 C 252.092 186.370,254.387 186.623,254.676 186.863 C 255.012 187.142,255.200 187.152,255.200 186.892 C 255.200 186.166,254.011 185.999,249.467 186.086 L 245.000 186.171 249.576 186.299 M99.600 200.800 C 99.600 208.720,99.735 215.200,99.900 215.200 C 100.065 215.200,100.200 208.720,100.200 200.800 C 100.200 192.880,100.065 186.400,99.900 186.400 C 99.735 186.400,99.600 192.880,99.600 200.800 M127.200 200.800 C 127.200 214.250,127.246 215.200,127.900 215.194 C 128.411 215.189,128.462 215.100,128.090 214.864 C 127.689 214.609,127.603 211.536,127.690 200.470 C 127.750 192.731,127.665 186.400,127.500 186.400 C 127.335 186.400,127.200 192.880,127.200 200.800 M140.400 186.800 C 141.768 187.238,142.819 187.238,141.800 186.800 C 141.360 186.611,140.640 186.462,140.200 186.468 C 139.557 186.477,139.596 186.543,140.400 186.800 M152.800 200.800 C 152.800 214.250,152.846 215.200,153.500 215.194 C 154.011 215.189,154.062 215.100,153.690 214.864 C 153.289 214.609,153.203 211.536,153.290 200.470 C 153.350 192.731,153.265 186.400,153.100 186.400 C 152.935 186.400,152.800 192.880,152.800 200.800 M197.400 186.800 C 197.840 186.989,198.470 187.144,198.800 187.144 C 199.178 187.144,199.104 187.017,198.600 186.800 C 198.160 186.611,197.530 186.456,197.200 186.456 C 196.822 186.456,196.896 186.583,197.400 186.800 M207.240 196.100 C 207.262 201.435,207.397 206.218,207.540 206.728 C 207.683 207.239,207.800 202.874,207.800 197.029 C 207.800 191.184,207.665 186.401,207.500 186.401 C 207.335 186.400,207.218 190.765,207.240 196.100 M224.267 186.667 C 224.120 186.813,224.000 191.253,224.000 196.533 C 224.000 208.839,224.539 208.457,224.800 195.966 C 224.988 186.967,224.933 186.001,224.267 186.667 M267.600 200.800 C 267.600 208.720,267.735 215.200,267.900 215.200 C 268.065 215.200,268.200 208.720,268.200 200.800 C 268.200 192.880,268.065 186.400,267.900 186.400 C 267.735 186.400,267.600 192.880,267.600 200.800 M299.800 200.800 C 299.800 208.720,299.935 215.200,300.100 215.200 C 300.265 215.200,300.400 208.720,300.400 200.800 C 300.400 192.880,300.265 186.400,300.100 186.400 C 299.935 186.400,299.800 192.880,299.800 200.800 M144.000 188.030 C 144.770 188.484,145.831 189.339,146.359 189.928 C 147.288 190.967,147.299 190.970,146.718 190.000 C 146.086 188.947,143.790 187.199,143.041 187.201 C 142.798 187.202,143.230 187.575,144.000 188.030 M199.943 187.520 C 200.299 187.770,200.387 188.226,200.198 188.850 C 199.976 189.584,200.020 189.696,200.393 189.342 C 201.014 188.753,200.775 187.514,200.000 187.303 C 199.514 187.170,199.503 187.212,199.943 187.520 M121.503 189.900 C 118.939 193.470,118.243 194.544,118.663 194.285 C 119.155 193.980,123.338 188.000,123.058 188.000 C 122.954 188.000,122.254 188.855,121.503 189.900 M243.400 188.800 C 243.250 189.273,243.217 189.750,243.327 189.860 C 243.437 189.970,243.650 189.673,243.800 189.200 C 243.950 188.727,243.983 188.250,243.873 188.140 C 243.763 188.030,243.550 188.327,243.400 188.800 M278.456 188.800 C 278.456 189.130,278.611 189.760,278.800 190.200 C 279.017 190.704,279.144 190.778,279.144 190.400 C 279.144 190.070,278.989 189.440,278.800 189.000 C 278.583 188.496,278.456 188.422,278.456 188.800 M289.029 189.429 C 288.881 190.015,288.838 190.572,288.932 190.666 C 289.027 190.760,289.224 190.358,289.371 189.771 C 289.519 189.185,289.562 188.628,289.468 188.534 C 289.373 188.440,289.176 188.842,289.029 189.429 M180.175 190.100 L 179.000 191.400 180.300 190.225 C 181.015 189.579,181.600 188.994,181.600 188.925 C 181.600 188.616,181.270 188.888,180.175 190.100 M110.174 194.402 C 108.940 196.163,107.766 197.503,107.565 197.379 C 107.364 197.254,107.200 197.433,107.200 197.776 C 107.200 198.594,107.584 198.566,108.250 197.700 C 109.774 195.717,112.820 191.200,112.633 191.200 C 112.515 191.200,111.408 192.641,110.174 194.402 M288.229 192.229 C 288.081 192.815,288.038 193.372,288.132 193.466 C 288.227 193.560,288.424 193.158,288.571 192.571 C 288.719 191.985,288.762 191.428,288.668 191.334 C 288.573 191.240,288.376 191.642,288.229 192.229 M249.280 192.420 C 249.016 192.843,248.805 193.417,248.812 193.695 C 248.819 193.979,249.005 193.890,249.237 193.492 C 249.464 193.102,249.818 192.888,250.025 193.015 C 250.231 193.143,250.400 192.977,250.400 192.647 C 250.400 191.700,249.805 191.579,249.280 192.420 M189.339 192.306 C 189.086 192.468,190.494 192.601,192.470 192.602 C 194.445 192.603,195.643 192.486,195.131 192.342 C 193.830 191.976,189.895 191.952,189.339 192.306 M198.646 192.625 C 198.459 193.113,198.107 193.218,197.296 193.030 C 196.482 192.841,196.354 192.880,196.800 193.182 C 197.983 193.982,200.017 193.083,199.099 192.165 C 198.989 192.055,198.785 192.262,198.646 192.625 M135.900 192.682 C 136.395 192.778,137.205 192.778,137.700 192.682 C 138.195 192.587,137.790 192.509,136.800 192.509 C 135.810 192.509,135.405 192.587,135.900 192.682 M186.724 193.900 C 185.588 195.118,184.637 196.771,184.914 197.047 C 185.012 197.145,185.321 196.674,185.600 196.000 C 185.880 195.325,186.669 194.331,187.354 193.791 C 188.039 193.251,188.409 192.807,188.175 192.804 C 187.941 192.802,187.288 193.295,186.724 193.900 M134.934 196.000 C 134.934 197.650,135.005 198.325,135.091 197.500 C 135.178 196.675,135.178 195.325,135.091 194.500 C 135.005 193.675,134.934 194.350,134.934 196.000 M140.144 195.578 C 140.181 196.974,139.988 197.451,139.072 198.240 C 138.458 198.768,138.114 199.200,138.308 199.200 C 139.590 199.200,141.182 195.812,140.486 194.567 C 140.193 194.044,140.110 194.289,140.144 195.578 M148.101 195.400 C 148.105 196.280,148.187 196.593,148.283 196.095 C 148.379 195.598,148.375 194.878,148.275 194.495 C 148.175 194.113,148.096 194.520,148.101 195.400 M250.456 194.400 C 250.456 194.730,250.611 195.360,250.800 195.800 C 251.017 196.304,251.144 196.378,251.144 196.000 C 251.144 195.670,250.989 195.040,250.800 194.600 C 250.583 194.096,250.456 194.022,250.456 194.400 M280.012 194.400 C 280.012 194.730,280.187 195.270,280.400 195.600 C 280.745 196.133,280.788 196.133,280.788 195.600 C 280.788 195.270,280.613 194.730,280.400 194.400 C 280.055 193.867,280.012 193.867,280.012 194.400 M287.429 195.029 C 287.281 195.615,287.238 196.172,287.332 196.266 C 287.427 196.360,287.624 195.958,287.771 195.371 C 287.919 194.785,287.962 194.228,287.868 194.134 C 287.773 194.040,287.576 194.442,287.429 195.029 M116.606 196.845 C 115.064 198.991,114.985 199.859,116.191 201.400 C 116.711 202.064,116.702 201.948,116.142 200.715 L 115.466 199.231 116.937 197.015 C 118.785 194.233,118.564 194.119,116.606 196.845 M292.800 195.600 C 292.800 196.040,292.980 196.400,293.200 196.400 C 293.420 196.400,293.600 196.040,293.600 195.600 C 293.600 195.160,293.420 194.800,293.200 194.800 C 292.980 194.800,292.800 195.160,292.800 195.600 M248.229 196.229 C 248.081 196.815,248.038 197.372,248.132 197.466 C 248.227 197.560,248.424 197.158,248.571 196.571 C 248.719 195.985,248.762 195.428,248.668 195.334 C 248.573 195.240,248.376 195.642,248.229 196.229 M274.070 197.651 C 274.124 199.635,274.174 199.821,274.293 198.491 C 274.378 197.551,274.616 196.886,274.823 197.014 C 275.446 197.399,275.247 196.137,274.600 195.600 C 274.076 195.165,274.009 195.426,274.070 197.651 M292.200 197.600 C 292.050 198.073,292.017 198.550,292.127 198.660 C 292.237 198.770,292.450 198.473,292.600 198.000 C 292.750 197.527,292.783 197.050,292.673 196.940 C 292.563 196.830,292.350 197.127,292.200 197.600 M275.256 198.000 C 275.256 198.330,275.411 198.960,275.600 199.400 C 275.817 199.904,275.944 199.978,275.944 199.600 C 275.944 199.270,275.789 198.640,275.600 198.200 C 275.383 197.696,275.256 197.622,275.256 198.000 M184.534 200.800 C 184.534 202.450,184.605 203.125,184.691 202.300 C 184.778 201.475,184.778 200.125,184.691 199.300 C 184.605 198.475,184.534 199.150,184.534 200.800 M176.528 200.800 C 176.528 202.230,176.601 202.815,176.689 202.100 C 176.778 201.385,176.778 200.215,176.689 199.500 C 176.601 198.785,176.528 199.370,176.528 200.800 M189.282 201.300 L 189.400 204.200 191.900 204.400 C 193.275 204.510,194.400 204.465,194.400 204.300 C 194.400 204.135,193.305 204.000,191.967 204.000 L 189.534 204.000 189.667 201.199 C 189.740 199.659,189.657 198.399,189.482 198.399 C 189.308 198.400,189.218 199.705,189.282 201.300 M247.400 199.200 C 247.250 199.673,247.217 200.150,247.327 200.260 C 247.437 200.370,247.650 200.073,247.800 199.600 C 247.950 199.127,247.983 198.650,247.873 198.540 C 247.763 198.430,247.550 198.727,247.400 199.200 M293.279 206.476 C 293.236 211.028,293.335 214.837,293.500 214.939 C 293.665 215.042,293.753 212.577,293.697 209.463 C 293.508 199.155,293.360 198.093,293.279 206.476 M291.429 200.229 C 291.281 200.815,291.238 201.372,291.332 201.466 C 291.427 201.560,291.624 201.158,291.771 200.571 C 291.919 199.985,291.962 199.428,291.868 199.334 C 291.773 199.240,291.576 199.642,291.429 200.229 M285.800 200.400 C 285.650 200.873,285.617 201.350,285.727 201.460 C 285.837 201.570,286.050 201.273,286.200 200.800 C 286.350 200.327,286.383 199.850,286.273 199.740 C 286.163 199.630,285.950 199.927,285.800 200.400 M252.034 200.600 C 252.022 201.040,252.187 201.670,252.400 202.000 C 252.914 202.795,252.914 201.796,252.400 200.600 L 252.056 199.800 252.034 200.600 M146.281 201.439 C 145.886 201.968,145.708 202.400,145.885 202.400 C 146.234 202.400,147.338 200.801,147.128 200.600 C 147.057 200.533,146.677 200.911,146.281 201.439 M276.034 201.000 C 276.022 201.440,276.187 202.070,276.400 202.400 C 276.914 203.195,276.914 202.196,276.400 201.000 L 276.056 200.200 276.034 201.000 M246.662 202.086 C 246.531 202.584,246.642 203.106,246.915 203.280 C 247.541 203.677,252.800 203.695,252.801 203.300 C 252.801 203.135,251.496 203.000,249.901 203.000 C 247.122 203.000,247.005 202.962,247.125 202.100 C 247.286 200.942,246.963 200.932,246.662 202.086 M282.456 202.400 C 282.456 202.730,282.611 203.360,282.800 203.800 C 283.017 204.304,283.144 204.378,283.144 204.000 C 283.144 203.670,282.989 203.040,282.800 202.600 C 282.583 202.096,282.456 202.022,282.456 202.400 M117.400 203.600 C 117.741 204.260,118.111 204.800,118.221 204.800 C 118.331 204.800,118.141 204.260,117.800 203.600 C 117.459 202.940,117.089 202.400,116.979 202.400 C 116.869 202.400,117.059 202.940,117.400 203.600 M285.000 203.200 C 284.850 203.673,284.817 204.150,284.927 204.260 C 285.037 204.370,285.250 204.073,285.400 203.600 C 285.550 203.127,285.583 202.650,285.473 202.540 C 285.363 202.430,285.150 202.727,285.000 203.200 M290.600 203.200 C 290.450 203.673,290.417 204.150,290.527 204.260 C 290.637 204.370,290.850 204.073,291.000 203.600 C 291.150 203.127,291.183 202.650,291.073 202.540 C 290.963 202.430,290.750 202.727,290.600 203.200 M238.600 203.600 C 238.450 204.073,238.417 204.550,238.527 204.660 C 238.637 204.770,238.850 204.473,239.000 204.000 C 239.150 203.527,239.183 203.050,239.073 202.940 C 238.963 202.830,238.750 203.127,238.600 203.600 M276.812 204.000 C 276.812 204.330,276.987 204.870,277.200 205.200 C 277.545 205.733,277.588 205.733,277.588 205.200 C 277.588 204.870,277.413 204.330,277.200 204.000 C 276.855 203.467,276.812 203.467,276.812 204.000 M108.284 204.658 C 107.688 204.970,107.200 205.428,107.200 205.675 C 107.200 205.929,107.517 205.837,107.931 205.462 C 109.097 204.407,109.921 204.677,110.800 206.400 C 111.919 208.593,112.199 208.431,111.122 206.215 C 110.098 204.106,109.726 203.902,108.284 204.658 M139.000 205.200 L 137.400 205.486 138.800 205.515 C 139.570 205.531,140.560 205.389,141.000 205.200 C 141.943 204.795,141.262 204.795,139.000 205.200 M176.856 205.200 C 176.856 205.530,177.011 206.160,177.200 206.600 C 177.417 207.104,177.544 207.178,177.544 206.800 C 177.544 206.470,177.389 205.840,177.200 205.400 C 176.983 204.896,176.856 204.822,176.856 205.200 M283.283 205.395 C 283.438 206.375,284.800 206.744,284.800 205.806 C 284.800 205.429,284.612 205.269,284.355 205.428 C 284.111 205.579,283.741 205.454,283.534 205.151 C 283.247 204.732,283.187 204.791,283.283 205.395 M119.000 206.400 C 119.341 207.060,119.711 207.600,119.821 207.600 C 119.931 207.600,119.741 207.060,119.400 206.400 C 119.059 205.740,118.689 205.200,118.579 205.200 C 118.469 205.200,118.659 205.740,119.000 206.400 M215.227 205.600 C 215.193 206.445,216.692 208.800,217.264 208.800 C 217.525 208.800,217.359 208.395,216.894 207.900 C 216.429 207.405,215.869 206.550,215.649 206.000 C 215.430 205.450,215.240 205.270,215.227 205.600 M289.800 206.000 C 289.650 206.473,289.617 206.950,289.727 207.060 C 289.837 207.170,290.050 206.873,290.200 206.400 C 290.350 205.927,290.383 205.450,290.273 205.340 C 290.163 205.230,289.950 205.527,289.800 206.000 M231.450 206.850 C 231.309 207.553,231.269 208.202,231.359 208.292 C 231.450 208.383,231.648 207.891,231.800 207.200 C 231.952 206.509,231.993 205.859,231.891 205.758 C 231.789 205.656,231.591 206.147,231.450 206.850 M134.724 210.601 C 134.656 213.131,134.735 215.201,134.900 215.201 C 135.065 215.200,135.200 213.130,135.200 210.600 C 135.200 204.652,134.885 204.652,134.724 210.601 M185.998 207.048 C 186.500 207.853,187.974 208.989,188.177 208.728 C 188.231 208.657,187.646 208.063,186.876 207.407 C 185.857 206.538,185.618 206.440,185.998 207.048 M277.612 206.800 C 277.612 207.130,277.787 207.670,278.000 208.000 C 278.345 208.533,278.388 208.533,278.388 208.000 C 278.388 207.670,278.213 207.130,278.000 206.800 C 277.655 206.267,277.612 206.267,277.612 206.800 M222.800 207.872 C 221.913 208.810,221.897 208.878,222.653 208.476 C 223.122 208.226,223.611 207.747,223.740 207.411 C 224.054 206.594,223.968 206.636,222.800 207.872 M289.000 208.800 C 288.850 209.273,288.817 209.750,288.927 209.860 C 289.037 209.970,289.250 209.673,289.400 209.200 C 289.550 208.727,289.583 208.250,289.473 208.140 C 289.363 208.030,289.150 208.327,289.000 208.800 M192.831 208.805 C 192.078 208.982,190.818 209.054,190.031 208.963 L 188.600 208.800 189.800 209.205 C 191.088 209.641,193.850 209.366,194.222 208.765 C 194.346 208.564,194.392 208.418,194.324 208.441 C 194.256 208.463,193.584 208.627,192.831 208.805 M218.905 209.087 C 219.514 209.179,220.414 209.177,220.905 209.082 C 221.397 208.987,220.900 208.911,219.800 208.914 C 218.700 208.917,218.297 208.995,218.905 209.087 M178.422 209.400 C 178.427 209.929,179.542 211.391,179.769 211.165 C 179.866 211.068,179.602 210.541,179.182 209.994 C 178.761 209.447,178.420 209.180,178.422 209.400 M278.412 209.600 C 278.412 209.930,278.587 210.470,278.800 210.800 C 279.145 211.333,279.188 211.333,279.188 210.800 C 279.188 210.470,279.013 209.930,278.800 209.600 C 278.455 209.067,278.412 209.067,278.412 209.600 M121.386 210.700 C 121.735 211.415,122.106 212.000,122.210 212.000 C 122.608 212.000,122.352 211.363,121.567 210.400 L 120.752 209.400 121.386 210.700 M254.324 210.200 C 254.526 210.640,254.792 211.270,254.914 211.600 C 255.107 212.118,255.141 212.115,255.168 211.576 C 255.186 211.234,254.920 210.604,254.578 210.176 C 253.966 209.412,253.962 209.413,254.324 210.200 M262.412 210.000 C 262.412 210.330,262.587 210.870,262.800 211.200 C 263.145 211.733,263.188 211.733,263.188 211.200 C 263.188 210.870,263.013 210.330,262.800 210.000 C 262.455 209.467,262.412 209.467,262.412 210.000 M208.813 210.256 C 208.831 210.744,209.957 212.176,210.161 211.971 C 210.255 211.877,209.987 211.375,209.566 210.856 C 209.145 210.336,208.806 210.066,208.813 210.256 M228.800 211.958 C 228.030 212.751,227.040 213.614,226.600 213.876 C 226.160 214.139,226.008 214.364,226.261 214.376 C 226.812 214.405,230.688 210.959,230.400 210.697 C 230.290 210.598,229.570 211.165,228.800 211.958 M244.200 211.600 C 244.050 212.073,244.017 212.550,244.127 212.660 C 244.237 212.770,244.450 212.473,244.600 212.000 C 244.750 211.527,244.783 211.050,244.673 210.940 C 244.563 210.830,244.350 211.127,244.200 211.600 M180.000 211.746 C 180.000 211.856,180.540 212.330,181.200 212.800 C 181.860 213.270,182.400 213.564,182.400 213.454 C 182.400 213.344,181.860 212.870,181.200 212.400 C 180.540 211.930,180.000 211.636,180.000 211.746 M263.212 212.400 C 263.212 212.730,263.387 213.270,263.600 213.600 C 263.945 214.133,263.988 214.133,263.988 213.600 C 263.988 213.270,263.813 212.730,263.600 212.400 C 263.255 211.867,263.212 211.867,263.212 212.400 M279.212 212.400 C 279.212 212.730,279.387 213.270,279.600 213.600 C 279.945 214.133,279.988 214.133,279.988 213.600 C 279.988 213.270,279.813 212.730,279.600 212.400 C 279.255 211.867,279.212 211.867,279.212 212.400 M122.974 213.549 C 123.301 214.181,123.455 214.811,123.317 214.949 C 123.179 215.087,123.277 215.200,123.533 215.200 C 123.790 215.200,124.000 215.101,124.000 214.980 C 124.000 214.600,122.789 212.400,122.579 212.400 C 122.469 212.400,122.647 212.917,122.974 213.549 M255.200 213.057 C 255.200 213.491,255.468 214.196,255.795 214.624 C 256.335 215.329,256.348 215.272,255.935 214.000 C 255.372 212.264,255.200 212.043,255.200 213.057 M211.944 213.576 C 212.464 214.029,213.079 214.400,213.311 214.400 C 213.803 214.400,213.779 214.380,212.200 213.455 L 211.000 212.753 211.944 213.576 M235.449 213.415 C 235.312 213.773,235.215 214.366,235.234 214.733 C 235.253 215.100,235.427 214.869,235.621 214.220 C 235.998 212.958,235.865 212.333,235.449 213.415 M200.400 213.861 C 199.849 214.152,199.669 214.388,200.000 214.388 C 200.690 214.388,201.870 213.720,201.588 213.489 C 201.485 213.404,200.950 213.571,200.400 213.861 M184.800 214.800 C 185.130 215.013,185.670 215.188,186.000 215.188 C 186.533 215.188,186.533 215.145,186.000 214.800 C 185.670 214.587,185.130 214.412,184.800 214.412 C 184.267 214.412,184.267 214.455,184.800 214.800 M196.800 214.800 C 195.996 215.057,195.957 215.123,196.600 215.132 C 197.040 215.138,197.760 214.989,198.200 214.800 C 199.219 214.362,198.168 214.362,196.800 214.800 M223.800 214.800 L 223.000 215.144 223.800 215.166 C 224.240 215.178,224.870 215.013,225.200 214.800 C 225.995 214.286,224.996 214.286,223.800 214.800 M189.100 215.493 C 190.035 215.577,191.565 215.577,192.500 215.493 C 193.435 215.409,192.670 215.340,190.800 215.340 C 188.930 215.340,188.165 215.409,189.100 215.493 M218.291 215.489 C 219.001 215.577,220.261 215.579,221.091 215.492 C 221.921 215.405,221.340 215.333,219.800 215.331 C 218.260 215.329,217.581 215.400,218.291 215.489 " stroke="none" fill="#c4a6fc" fill-rule="evenodd"></path></g></svg>